<svg width="346" height="89" viewBox="0 0 346 89" fill="none" xmlns="http://www.w3.org/2000/svg">
<g clip-path="url(#clip0_3156_10943)">
<path d="M2.18884 62.7177H7.4572C10.6699 62.7177 12.2857 64.4741 12.2857 67.9682V71.7185C12.2857 74.2915 11.1288 75.953 8.81493 76.7031C8.26037 76.8836 7.4572 76.969 6.39589 76.969H5.80307V87.6599H2.18884V62.7271V62.7177ZM5.81264 66.2685V73.4086H6.64449C7.15124 73.4086 7.49545 73.3705 7.67711 73.3041C8.33685 73.0382 8.66195 72.516 8.66195 71.7185V67.9682C8.66195 66.8288 8.13607 66.2685 7.08431 66.2685H5.80307H5.81264Z" fill="white"/>
<path d="M27.8804 78.8109L29.0565 87.6599H25.3944L24.6868 82.3713H20.9866L20.2695 87.6599H16.6266L17.8027 78.8488L20.3651 62.7177H25.3275L27.8709 78.8109H27.8804ZM24.2184 78.8109L22.832 68.4429L21.4456 78.8109H24.2088H24.2184Z" fill="white"/>
<path d="M44.1159 62.7177V66.2591H40.7217V87.6503H37.0978V66.2591H33.7036V62.7177H44.1064H44.1159Z" fill="white"/>
<path d="M50.3307 62.7177H55.599C58.8116 62.7177 60.4276 64.4741 60.4276 67.9682V71.7185C60.4276 73.9118 59.4713 75.3549 57.5782 76.0479L61.6514 87.6503H57.6834L54.423 76.6842L53.9639 76.7506V87.6599H50.3402V62.7271L50.3307 62.7177ZM53.9544 66.2685V73.4086H54.7863C55.293 73.4086 55.6373 73.3705 55.8189 73.3041C56.4786 73.0382 56.8037 72.516 56.8037 71.7185V67.9682C56.8037 66.8288 56.2778 66.2685 55.2261 66.2685H53.9449H53.9544Z" fill="white"/>
<path d="M77.7431 82.8184C77.7431 86.3123 76.0029 88.0593 72.5322 88.0689C69.0709 88.0689 67.3403 86.3219 67.3403 82.8184V67.5701C67.3403 64.0761 69.0709 62.3387 72.5322 62.3387C75.9934 62.3387 77.7431 64.0856 77.7431 67.5701V82.8184ZM74.1194 67.5606C74.1194 66.4403 73.5935 65.8801 72.5417 65.8705H72.513C71.4708 65.8705 70.9545 66.4308 70.9545 67.5606V82.8089C70.9545 83.9387 71.4805 84.4989 72.5322 84.4989C73.584 84.4989 74.1194 83.9387 74.1194 82.8089V67.5606Z" fill="white"/>
<path d="M94.8675 82.8184C94.8675 86.3123 93.1273 88.0593 89.6565 88.0689C86.1953 88.0689 84.4647 86.3219 84.4647 82.8184V67.5701C84.4647 64.0761 86.1953 62.3387 89.6565 62.3387C93.1178 62.3387 94.8675 64.0856 94.8675 67.5701V70.9218H91.2438V67.5701C91.2438 66.4497 90.7179 65.8896 89.6661 65.8801H89.6374C88.5952 65.8801 88.0789 66.4403 88.0789 67.5701V82.8184C88.0789 83.9482 88.6047 84.5085 89.6565 84.5085C90.7082 84.5085 91.2438 83.9482 91.2438 82.8184V79.4668H94.8675V82.8184Z" fill="white"/>
<path d="M101.781 62.7177H105.405V87.6503H101.781V62.7177Z" fill="white"/>
<path d="M112.7 62.7177H116.324L119.756 77.1778V62.7177H123.112V87.6503H119.489L116.19 73.6459V87.6503H112.709V62.7177H112.7Z" fill="white"/>
<path d="M140.438 78.8109L141.614 87.6599H137.952L137.244 82.3713H133.544L132.827 87.6599H129.184L130.36 78.8488L132.922 62.7177H137.885L140.428 78.8109H140.438ZM136.776 78.8109L135.389 68.4429L134.003 78.8109H136.766H136.776Z" fill="white"/>
<path d="M147.695 62.7177H153.279C156.492 62.7177 158.107 64.4741 158.107 67.9682V82.4188C158.107 85.9033 156.424 87.6503 153.049 87.6503H147.695V62.7177ZM151.318 66.2685V84.1089H152.906C153.958 84.1089 154.484 83.5486 154.484 82.4188V67.9682C154.484 66.8288 153.958 66.2685 152.906 66.2685H151.318Z" fill="white"/>
<path d="M175.232 82.8184C175.232 86.3123 173.492 88.0593 170.021 88.0689C166.56 88.0689 164.829 86.3219 164.829 82.8184V67.5701C164.829 64.0761 166.56 62.3387 170.021 62.3387C173.482 62.3387 175.232 64.0856 175.232 67.5701V82.8184ZM171.609 67.5606C171.609 66.4403 171.082 65.8801 170.031 65.8705H170.003C168.96 65.8705 168.443 66.4308 168.443 67.5606V82.8089C168.443 83.9387 168.969 84.4989 170.021 84.4989C171.073 84.4989 171.609 83.9387 171.609 82.8089V67.5606Z" fill="white"/>
<path d="M182.212 62.7177H187.48C190.693 62.7177 192.309 64.4741 192.309 67.9682V71.7185C192.309 73.9118 191.353 75.3549 189.46 76.0479L193.533 87.6503H189.565L186.304 76.6842L185.845 76.7506V87.6599H182.221V62.7271L182.212 62.7177ZM185.827 66.2685V73.4086H186.658C187.165 73.4086 187.509 73.3705 187.69 73.3041C188.351 73.0382 188.676 72.516 188.676 71.7185V67.9682C188.676 66.8288 188.149 66.2685 187.098 66.2685H185.817H185.827Z" fill="white"/>
<path d="M209.883 62.7177H215.151C218.363 62.7177 219.979 64.4741 219.979 67.9682V71.7185C219.979 74.2915 218.823 75.953 216.508 76.7031C215.954 76.8836 215.151 76.969 214.09 76.969H213.497V87.6599H209.873V62.7271L209.883 62.7177ZM213.506 66.2685V73.4086H214.338C214.845 73.4086 215.189 73.3705 215.371 73.3041C216.031 73.0382 216.356 72.516 216.356 71.7185V67.9682C216.356 66.8288 215.829 66.2685 214.778 66.2685H213.497H213.506Z" fill="white"/>
<path d="M226.576 62.7177H231.845C235.058 62.7177 236.674 64.4741 236.674 67.9682V71.7185C236.674 73.9118 235.717 75.3549 233.824 76.0479L237.897 87.6503H233.93L230.669 76.6842L230.211 76.7506V87.6599H226.586V62.7271L226.576 62.7177ZM230.191 66.2685V73.4086H231.023C231.53 73.4086 231.874 73.3705 232.056 73.3041C232.716 73.0382 233.04 72.516 233.04 71.7185V67.9682C233.04 66.8288 232.514 66.2685 231.463 66.2685H230.181H230.191Z" fill="white"/>
<path d="M243.902 62.7177H247.526V87.6503H243.902V62.7177Z" fill="white"/>
<path d="M254.822 62.7177H258.445L261.878 77.1778V62.7177H265.234V87.6503H261.611L258.311 73.6459V87.6503H254.832V62.7177H254.822Z" fill="white"/>
<path d="M282.607 82.8184C282.607 86.3123 280.868 88.0593 277.397 88.0689C273.935 88.0689 272.204 86.3219 272.204 82.8184V67.5701C272.204 64.0761 273.935 62.3387 277.397 62.3387C280.858 62.3387 282.607 64.0856 282.607 67.5701V70.9218H278.983V67.5701C278.983 66.4497 278.458 65.8896 277.405 65.8801H277.377C276.334 65.8801 275.819 66.4403 275.819 67.5701V82.8184C275.819 83.9482 276.344 84.5085 277.397 84.5085C278.448 84.5085 278.983 83.9482 278.983 82.8184V79.4668H282.607V82.8184Z" fill="white"/>
<path d="M289.52 62.7177H293.144V87.6503H289.52V62.7177Z" fill="white"/>
<path d="M300.439 62.7177H305.708C308.92 62.7177 310.536 64.4741 310.536 67.9682V71.7185C310.536 74.2915 309.379 75.953 307.065 76.7031C306.511 76.8836 305.708 76.969 304.647 76.969H304.053V87.6599H300.43V62.7271L300.439 62.7177ZM304.063 66.2685V73.4086H304.895C305.402 73.4086 305.746 73.3705 305.928 73.3041C306.587 73.0382 306.912 72.516 306.912 71.7185V67.9682C306.912 66.8288 306.386 66.2685 305.334 66.2685H304.053H304.063Z" fill="white"/>
<path d="M326.131 78.8109L327.306 87.6599H323.645L322.938 82.3713H319.237L318.519 87.6599H314.877L316.053 78.8488L318.616 62.7177H323.578L326.122 78.8109H326.131ZM322.469 78.8109L321.083 68.4429L319.695 78.8109H322.459H322.469Z" fill="white"/>
<path d="M333.388 87.6602V62.7275H337.011V84.1187H342.787V87.6602H333.398H333.388Z" fill="white"/>
<path d="M19.9258 41.5927C18.3672 42.9029 15.6709 44.2702 11.8655 44.2702C3.86252 44.2702 0.802856 39.5418 0.802856 33.8166C0.802856 27.7211 6.11902 23.3631 15.1163 23.3631C15.5562 23.3631 16.6175 23.3631 16.9331 23.4296V21.4358C16.9331 19.5653 16.6844 18.445 14.3036 18.445C10.6798 18.445 7.86876 19.7552 5.11507 21.806L1.17575 15.0744C5.17244 12.6438 10.3643 10.5265 15.6709 10.5265C21.7998 10.5265 26.112 12.5773 27.2977 16.3751C27.7375 17.8088 27.7949 18.9861 27.7949 21.3598L27.6705 32.44C27.6705 35.1174 27.9191 37.2916 30.1661 38.7253L23.9128 44.7638C22.3544 44.2701 20.4134 42.5896 19.9161 41.5927M11.3683 33.6838C11.3683 35.5542 12.487 36.798 14.361 36.798C15.298 36.798 16.5506 36.2377 16.9234 35.7441V30.1422C12.3627 30.0189 11.3587 31.8227 11.3587 33.6932" fill="#FF0000"/>
<path d="M48.9641 10.5265C60.2753 10.5265 61.6521 19.8027 61.6521 25.7748C61.6521 38.2885 56.6514 44.2606 47.9697 44.2606C46.0288 44.2606 44.4033 43.8238 42.9021 43.2067C43.2177 44.0803 43.3993 45.5139 43.3993 48.1249V52.5019L32.5279 54.135V23.0403C32.5279 19.1856 32.3462 15.6915 31.5336 12.2735L41.5349 10.5929C41.8503 11.4665 42.099 12.4634 42.2233 13.4604C42.9116 12.1501 45.847 10.536 48.9736 10.536M43.3993 20.4862V34.8611C43.5236 35.3548 44.4033 35.7345 45.4645 35.7345C48.027 35.7345 50.0254 35.1743 50.0254 26.7052C50.0254 21.6636 49.6525 18.8627 46.7745 18.8627C45.0248 18.8627 43.9635 19.6128 43.3993 20.4768" fill="#FF0000"/>
<path d="M94.0556 33.6272C94.0556 36.9313 94.744 39.229 95.6811 40.9095L86.2439 44.2706C85.4982 43.3971 85.1252 42.0299 84.8671 41.3463C82.993 43.0269 80.2393 44.2706 76.8068 44.2706C70.8692 44.2706 67.8094 42.3432 66.6812 38.6689C66.184 37.0548 66.0597 35.1179 66.0597 30.8834V12.2075L76.9312 10.4605V33.7411C76.9312 35.735 77.935 36.1718 79.8091 36.1718C80.8705 36.1718 82.2472 35.5547 83.1843 34.5577V12.2075L94.0556 10.4605V33.6177V33.6272Z" fill="#FF0000"/>
<path d="M114.651 36.6746C117.462 36.6746 120.34 35.6207 123.151 33.437L127.339 39.6655C123.026 42.9601 119.02 44.2703 114.211 44.2703C103.894 44.2703 98.2144 37.985 98.2144 27.5884C98.2144 17.1918 103.779 10.5362 112.901 10.5362C123.275 10.5362 127.521 17.1349 127.462 28.1485V30.826H109.459C109.459 32.8199 110.147 36.6746 114.651 36.6746ZM113.274 18.0654C110.96 18.0654 109.459 19.499 109.459 23.7906H116.706C116.831 20.2396 115.894 18.0654 113.274 18.0654Z" fill="#FF0000"/>
<path d="M143.622 44.2703C138.995 44.2703 134.501 42.7797 129.624 40.2256L133.44 32.3831C135.562 33.6934 140.811 36.4943 144.005 36.4943C145.937 36.4943 147.38 35.2505 147.38 34.0636C147.38 32.3166 146.319 31.823 143.135 31.1393L138.946 30.2659C133.755 29.212 131.384 26.0312 131.384 21.4929C131.384 14.8941 136.576 10.5362 144.636 10.5362C151.014 10.5362 154.265 12.4636 157.391 13.8308L154.015 20.5529C150.832 18.8724 148.202 18.1888 146.08 18.1888C144.387 18.1888 143.268 18.9388 143.268 19.9927C143.268 21.1131 144.024 21.9866 146.644 22.5468L150.641 23.4202C156.33 24.6641 158.644 27.7783 158.644 32.8199C158.644 39.7888 152.639 44.2703 143.642 44.2703" fill="#FF0000"/>
<path d="M175.003 0.500244C174.793 2.46561 174.688 5.75073 174.688 10.3556H182.547L181.075 17.6474H174.688V30.9587C174.688 32.9622 174.812 34.2629 175.07 34.8611C175.49 36.0099 176.514 36.589 178.139 36.589C179.248 36.589 180.186 36.3801 180.95 35.9529L182.289 42.3522C179.602 43.6339 176.82 44.2702 173.922 44.2702C170.518 44.2702 168.023 43.7384 166.455 42.675C164.543 41.4408 163.577 39.3045 163.577 36.2758V17.6568H160.89V10.3651H163.577C163.577 6.65272 163.701 3.92778 163.96 2.17128L175.013 0.509738L175.003 0.500244Z" fill="#FF0000"/>
<path d="M203.219 41.5368C201.66 42.8471 198.964 44.2144 195.158 44.2144C187.155 44.2144 184.096 39.486 184.096 33.7608C184.096 27.6653 189.412 23.3073 198.409 23.3073C198.849 23.3073 199.91 23.3073 200.227 23.3737V21.38C200.227 19.5096 199.978 18.3891 197.606 18.3891C193.982 18.3891 191.171 19.6994 188.417 21.7502L184.478 15.0281C188.476 12.5975 193.667 10.4802 198.974 10.4802C205.102 10.4802 209.414 12.531 210.6 16.3288C211.04 17.7626 211.097 18.9398 211.097 21.3134L210.974 32.3936C210.974 35.0711 211.222 37.2454 213.469 38.6791L207.216 44.7176C205.656 44.2238 203.716 42.5432 203.219 41.5464M194.661 33.6279C194.661 35.4983 195.79 36.7422 197.655 36.7422C198.591 36.7422 199.843 36.182 200.217 35.6883V30.0864C195.655 29.963 194.652 31.767 194.652 33.6374" fill="#FF0000"/>
<path d="M285.782 0.756989C285.571 2.72237 285.466 5.99799 285.466 10.6028H293.326L291.853 17.8947H285.466V31.1966C285.466 33.1999 285.59 34.5007 285.848 35.0988C286.269 36.2476 287.293 36.8268 288.917 36.8268C290.027 36.8268 290.964 36.6179 291.729 36.1906L293.067 42.5805C290.38 43.8622 287.598 44.4984 284.701 44.4984C281.298 44.4984 278.801 43.9667 277.233 42.9033C275.321 41.6691 274.356 39.5328 274.356 36.5135V17.9136H271.669V10.6218H274.356C274.356 6.90946 274.481 4.18452 274.738 2.43752L285.791 0.775978L285.782 0.756989Z" fill="white"/>
<path d="M254.66 10.5462C259.087 10.5462 262.653 11.7994 265.359 14.306C268.361 17.1069 269.872 21.2371 269.872 26.7154C269.872 32.6875 268.217 37.2449 264.91 40.3781C262.069 43.1315 258.446 44.5177 254.018 44.5177C249.209 44.5177 245.433 43.0365 242.707 40.0742C239.982 37.1119 238.615 32.9723 238.615 27.6648C238.615 22.3574 240.078 18.4456 242.994 15.2935C245.92 12.1412 249.803 10.5651 254.66 10.5651M254.21 18.1323C252.967 18.1323 252.106 18.74 251.628 19.9457C251.026 21.4079 250.73 24.038 250.73 27.8357C250.73 31.2158 250.92 33.4945 251.312 34.6623C251.781 36.1244 252.775 36.8556 254.276 36.8556C255.606 36.8556 256.523 36.0865 257.012 34.5388C257.509 32.9913 257.757 30.2758 257.757 26.3925C257.757 23.2214 257.499 21.0471 256.982 19.8793C256.466 18.7115 255.539 18.1229 254.21 18.1229" fill="white"/>
<path d="M345.187 43.4819C343.428 44.1654 340.12 44.5073 337.069 44.5073C332.777 44.5073 329.985 43.4153 328.694 41.2315C327.833 39.8168 327.403 37.0825 327.403 33.0188V10.4218C327.403 3.83255 327.269 3.88002 327.011 2.41785L338.103 0.775299C338.447 2.91157 338.619 5.59853 338.619 8.9786V29.3539C338.619 32.4396 338.752 34.405 339.001 35.2596C339.346 36.2469 340.12 36.7407 341.324 36.7407C341.707 36.7407 342.997 36.6743 343.39 36.5508L345.197 43.4819H345.187Z" fill="white"/>
<path d="M229.235 0.756989C229.025 2.72237 228.92 5.99799 228.92 10.6028H236.779L235.307 17.8947H228.92V31.1966C228.92 33.1999 229.045 34.5007 229.302 35.0988C229.723 36.2476 230.746 36.8268 232.372 36.8268C233.48 36.8268 234.417 36.6179 235.183 36.1906L236.521 42.59C233.835 43.8718 231.052 44.5079 228.156 44.5079C224.751 44.5079 222.256 43.9762 220.688 42.9128C218.775 41.6785 217.809 39.5422 217.809 36.5135V17.9041H215.122V10.6123H217.809C217.809 6.89996 217.934 4.17502 218.193 2.42803L229.245 0.766484L229.235 0.756989Z" fill="white"/>
<path d="M314.381 41.7924C312.821 43.1027 310.126 44.4698 306.32 44.4698C298.317 44.4698 295.257 39.7416 295.257 34.0164C295.257 27.9209 300.573 23.5629 309.57 23.5629C310.011 23.5629 311.072 23.5629 311.387 23.6293V21.6354C311.387 19.765 311.138 18.6447 308.768 18.6447C305.144 18.6447 302.333 19.955 299.579 22.0058L295.639 15.2836C299.636 12.853 304.828 10.7357 310.134 10.7357C316.264 10.7357 320.576 12.7866 321.762 16.5844C322.202 18.018 322.259 19.1954 322.259 21.569L322.134 32.6492C322.134 35.3266 322.382 37.5008 324.631 38.9345L318.377 44.973C316.818 44.4794 314.878 42.7988 314.381 41.8019M305.822 33.8834C305.822 35.7539 306.951 36.9976 308.815 36.9976C309.752 36.9976 311.005 36.4375 311.378 35.9437V30.342C306.817 30.2185 305.813 32.0225 305.813 33.893" fill="white"/>
</g>
<defs>
<clipPath id="clip0_3156_10943">
<rect width="345" height="88" fill="white" transform="translate(0.5 0.499939)"/>
</clipPath>
</defs>
</svg>
